<svg width="58" height="25" viewBox="0 0 58 25" fill="none" xmlns="http://www.w3.org/2000/svg">
<rect width="58" height="25" rx="4" fill="#4267B2"/>
<path fill-rule="evenodd" clip-rule="evenodd" d="M14.5998 7.49992C14.5998 6.49992 13.6118 5.83325 12.8398 5.83325C12.3025 5.83325 12.2605 6.24125 12.1778 7.04659C12.1412 7.39992 12.0972 7.82925 11.9998 8.33325C11.7425 9.66792 10.8532 11.3733 10.0025 11.8833V15.8333C9.99984 17.3333 10.4998 17.8333 12.6665 17.8333H15.1818C16.6325 17.8333 16.9838 16.8779 17.1145 16.5239L17.1232 16.4999C17.1992 16.2959 17.3618 16.1353 17.5485 15.9533C17.7552 15.7493 17.9912 15.5179 18.1665 15.1666C18.3738 14.7513 18.3465 14.3819 18.3218 14.0533C18.3065 13.8539 18.2925 13.6699 18.3332 13.4999C18.3758 13.3199 18.4305 13.1833 18.4832 13.0526C18.5785 12.8153 18.6665 12.5953 18.6665 12.1666C18.6665 11.1666 18.1678 10.5013 17.1232 10.5013H14.3332C14.3332 10.5013 14.5998 8.49992 14.5998 7.49992ZM7.6665 11.1666C7.40129 11.1666 7.14693 11.2719 6.9594 11.4595C6.77186 11.647 6.6665 11.9014 6.6665 12.1666V16.8333C6.6665 17.0985 6.77186 17.3528 6.9594 17.5404C7.14693 17.7279 7.40129 17.8333 7.6665 17.8333C7.93172 17.8333 8.18607 17.7279 8.37361 17.5404C8.56115 17.3528 8.6665 17.0985 8.6665 16.8333V12.1666C8.6665 11.9014 8.56115 11.647 8.37361 11.4595C8.18607 11.2719 7.93172 11.1666 7.6665 11.1666Z" fill="white"/>
<path d="M27.1186 18V7.81818H28.6548V16.6776H33.2685V18H27.1186ZM35.1816 18V10.3636H36.6681V18H35.1816ZM35.9323 9.18537C35.6738 9.18537 35.4518 9.09919 35.2662 8.92685C35.0839 8.75118 34.9927 8.54238 34.9927 8.30043C34.9927 8.05516 35.0839 7.84635 35.2662 7.67401C35.4518 7.49834 35.6738 7.41051 35.9323 7.41051C36.1909 7.41051 36.4113 7.49834 36.5936 7.67401C36.7792 7.84635 36.872 8.05516 36.872 8.30043C36.872 8.54238 36.7792 8.75118 36.5936 8.92685C36.4113 9.09919 36.1909 9.18537 35.9323 9.18537ZM40.3151 15.4098L40.3052 13.5952H40.5637L43.6063 10.3636H45.3862L41.916 14.0426H41.6823L40.3151 15.4098ZM38.948 18V7.81818H40.4345V18H38.948ZM43.7704 18L41.036 14.3707L42.0602 13.3317L45.595 18H43.7704ZM49.9977 18.1541C49.2453 18.1541 48.5973 17.9934 48.0538 17.6719C47.5135 17.3471 47.0959 16.8913 46.8009 16.3047C46.5093 15.7147 46.3634 15.0237 46.3634 14.2315C46.3634 13.4493 46.5093 12.7599 46.8009 12.1634C47.0959 11.5668 47.5069 11.1011 48.0339 10.7663C48.5642 10.4316 49.184 10.2642 49.8933 10.2642C50.3241 10.2642 50.7418 10.3355 51.1461 10.478C51.5505 10.6205 51.9134 10.8442 52.2349 11.1491C52.5564 11.4541 52.8099 11.8501 52.9955 12.3374C53.1811 12.8213 53.2739 13.4096 53.2739 14.1023V14.6293H47.2036V13.5156H51.8173C51.8173 13.1245 51.7377 12.7782 51.5786 12.4766C51.4195 12.1716 51.1958 11.9313 50.9075 11.7557C50.6224 11.58 50.2877 11.4922 49.9032 11.4922C49.4856 11.4922 49.121 11.5949 48.8095 11.8004C48.5012 12.0026 48.2626 12.2678 48.0936 12.5959C47.9278 12.9207 47.845 13.2737 47.845 13.6548V14.5249C47.845 15.0353 47.9345 15.4695 48.1134 15.8274C48.2957 16.1854 48.5493 16.4588 48.8741 16.6477C49.1989 16.8333 49.5784 16.9261 50.0126 16.9261C50.2943 16.9261 50.5512 16.8864 50.7832 16.8068C51.0152 16.724 51.2157 16.6013 51.3847 16.4389C51.5538 16.2765 51.683 16.076 51.7725 15.8374L53.1795 16.0909C53.0668 16.5052 52.8646 16.8681 52.573 17.1797C52.2846 17.4879 51.9217 17.7282 51.4842 17.9006C51.05 18.0696 50.5545 18.1541 49.9977 18.1541Z" fill="white"/>
</svg>
